<svg width="40" height="40" viewBox="0 0 40 40" fill="none" xmlns="http://www.w3.org/2000/svg">
<g clip-path="url(#clip0_1268_621)">
<path fill-rule="evenodd" clip-rule="evenodd" d="M20.0014 39.9999C23.9574 39.9999 27.8246 38.8268 31.1139 36.6289C34.4032 34.431 36.9668 31.307 38.4806 27.652C39.9944 23.9971 40.3903 19.9753 39.6183 16.0954C38.8463 12.2154 36.9411 8.65149 34.1435 5.85436C31.346 3.05722 27.7818 1.1525 23.9018 0.381057C20.0217 -0.390383 16 0.00611397 12.3452 1.52041C8.69052 3.0347 5.56692 5.59877 3.36947 8.88836C1.17203 12.1779 -0.00055801 16.0453 1.99208e-07 20.0013C0.0104445 25.3025 2.12117 30.3836 5.86998 34.1319C9.6188 37.8802 14.7002 39.9902 20.0014 39.9999Z" fill="#161617"/>
<path fill-rule="evenodd" clip-rule="evenodd" d="M15.8809 18.1137H18.4209V16.0252C18.4209 14.521 18.8047 13.361 20.1143 12.6808C21.2432 12.0966 22.9365 12.2236 24.1303 12.4805V14.8653C22.6204 14.7608 21.3222 14.8653 21.3222 16.6489V18.1137H24.0429L23.6506 20.936H21.3109V27.7461H18.4237V20.936H15.8837L15.8809 18.1137Z" fill="white"/>
</g>
<defs>
<clipPath id="clip0_1268_621">
<rect width="40" height="40" fill="white"/>
</clipPath>
</defs>
</svg>
